<svg xmlns="http://www.w3.org/2000/svg" xmlns:xlink="http://www.w3.org/1999/xlink" width="1024" zoomAndPan="magnify" viewBox="0 0 768 767.999994" height="1024" preserveAspectRatio="xMidYMid meet" version="1.0"><defs><clipPath id="2d536ebc60"><path d="M 165.046875 208.683594 L 571.546875 208.683594 L 571.546875 558.933594 L 165.046875 558.933594 Z M 165.046875 208.683594 " clip-rule="nonzero"/></clipPath></defs><g clip-path="url(#2d536ebc60)"><path fill="#000000" d="M 624.445312 592.652344 C 615.0625 583.757812 608.695312 573.273438 605.476562 561.453125 C 610.746094 549.949219 613.414062 537.734375 613.414062 525.085938 L 613.414062 452.367188 C 613.414062 421.136719 596.988281 393.746094 572.386719 378.160156 L 572.386719 330.949219 C 572.386719 263.496094 517.550781 208.621094 450.148438 208.621094 L 316.820312 208.621094 C 249.417969 208.621094 194.589844 263.496094 194.589844 330.949219 L 194.589844 435.601562 C 194.589844 453.695312 198.507812 471.152344 206.246094 487.550781 C 201.5625 505.925781 191.867188 522.171875 177.398438 535.886719 L 165.945312 546.738281 L 180.847656 551.894531 C 190.574219 555.261719 200.90625 556.972656 211.558594 556.972656 C 227.890625 556.972656 245.046875 553.027344 262.613281 545.246094 C 279.386719 553.550781 298.03125 557.917969 316.824219 557.917969 L 351.597656 557.917969 C 364.625 590.148438 396.089844 613.011719 432.925781 613.011719 L 525.558594 613.011719 C 538.609375 613.011719 551.558594 610.078125 563.292969 604.5 C 575.449219 609.714844 587.34375 612.359375 598.71875 612.359375 C 606.4375 612.359375 613.9375 611.117188 620.992188 608.675781 L 635.898438 603.515625 Z M 267.453125 526.167969 L 263.160156 523.820312 L 258.742188 525.929688 C 238.710938 535.488281 219.625 539.339844 202.183594 537.242188 C 213.828125 522.855469 221.714844 506.511719 225.699219 488.476562 L 226.433594 485.136719 L 224.890625 482.078125 C 217.492188 467.46875 213.734375 451.835938 213.734375 435.589844 L 213.734375 330.945312 C 213.734375 274.058594 259.980469 227.773438 316.820312 227.773438 L 450.148438 227.773438 C 506.996094 227.773438 553.242188 274.058594 553.242188 330.945312 L 553.242188 435.589844 C 553.242188 492.472656 506.996094 538.75 450.148438 538.75 L 316.820312 538.75 C 299.589844 538.75 282.519531 534.402344 267.453125 526.167969 Z M 598.714844 593.1875 C 588.855469 593.1875 578.246094 590.5 567.164062 585.214844 L 562.746094 583.109375 L 558.453125 585.453125 C 548.414062 590.945312 537.035156 593.839844 525.554688 593.839844 L 432.921875 593.839844 C 406.917969 593.839844 384.300781 579.285156 372.644531 557.910156 L 450.148438 557.910156 C 517.550781 557.910156 572.386719 503.039062 572.386719 435.589844 L 572.386719 402.167969 C 585.832031 414.71875 594.269531 432.558594 594.269531 452.363281 L 594.269531 525.085938 C 594.269531 535.902344 591.765625 546.320312 586.824219 556.054688 L 585.273438 559.113281 L 586.011719 562.460938 C 588.480469 573.644531 593.039062 583.921875 599.609375 593.175781 C 599.3125 593.179688 599.015625 593.1875 598.714844 593.1875 Z M 598.714844 593.1875 " fill-opacity="1" fill-rule="nonzero"/></g></svg>