<svg xmlns="http://www.w3.org/2000/svg" xmlns:xlink="http://www.w3.org/1999/xlink" width="1024" zoomAndPan="magnify" viewBox="0 0 768 767.999994" height="1024" preserveAspectRatio="xMidYMid meet" version="1.0"><defs><clipPath id="48760ef5e0"><path d="M 208.945312 208.464844 L 559.195312 208.464844 L 559.195312 558.714844 L 208.945312 558.714844 Z M 208.945312 208.464844 " clip-rule="nonzero"/></clipPath></defs><g clip-path="url(#48760ef5e0)"><path fill="#000000" d="M 383.996094 254.3125 C 377.09375 254.3125 371.5 259.90625 371.5 266.804688 L 371.5 383.515625 C 371.5 386.964844 372.867188 390.105469 375.136719 392.375 L 451.722656 468.957031 C 456.601562 473.835938 464.558594 473.835938 469.4375 468.957031 C 474.316406 464.078125 474.316406 456.121094 469.4375 451.242188 L 396.488281 378.292969 L 396.488281 266.804688 C 396.488281 259.90625 390.894531 254.3125 383.996094 254.3125 Z M 383.996094 233.488281 C 467.011719 233.488281 534.023438 300.496094 534.023438 383.515625 C 534.023438 466.53125 467.011719 533.542969 383.996094 533.542969 C 300.976562 533.542969 233.96875 466.53125 233.96875 383.515625 C 233.96875 300.496094 300.976562 233.488281 383.996094 233.488281 Z M 383.996094 208.464844 C 287.457031 208.464844 208.945312 286.976562 208.945312 383.515625 C 208.945312 480.054688 287.457031 558.5625 383.996094 558.5625 C 480.535156 558.5625 559.042969 480.054688 559.042969 383.515625 C 559.042969 286.976562 480.535156 208.464844 383.996094 208.464844 " fill-opacity="1" fill-rule="nonzero"/></g></svg>