<svg xmlns="http://www.w3.org/2000/svg" xmlns:xlink="http://www.w3.org/1999/xlink" width="1024" zoomAndPan="magnify" viewBox="0 0 768 767.999994" height="1024" preserveAspectRatio="xMidYMid meet" version="1.0"><path fill="#000000" d="M 555.640625 547.296875 L 555.730469 547.296875 Z M 250.425781 208.46875 C 246.5625 208.46875 242.914062 210.21875 238.945312 213.691406 C 238.511719 214.105469 232.835938 219.488281 229.144531 223 L 225.921875 226.046875 C 207.09375 243.652344 198.558594 275.335938 204.175781 306.785156 C 205.980469 316.9375 208.898438 327.464844 212.847656 338.054688 C 232.75 391.5 270.523438 437.964844 298.71875 467.542969 C 326.78125 497.316406 371.167969 537.527344 423.460938 560.257812 C 433.832031 564.761719 444.183594 568.242188 454.222656 570.597656 C 485.328125 577.882812 517.429688 571.054688 536 553.203125 L 539.09375 550.261719 C 542.6875 546.867188 548.296875 541.558594 549.113281 540.777344 C 560.679688 528.878906 554.898438 518.988281 531.703125 495.398438 L 525.898438 489.441406 C 511.207031 474.195312 486.550781 448.660156 465.710938 451.152344 C 460.042969 451.820312 454.128906 455.953125 447.863281 460.324219 C 441.652344 464.660156 435.226562 469.140625 427.523438 471.582031 C 406.832031 478.144531 385.851562 473.832031 368.417969 459.46875 C 358 450.875 347.390625 440.824219 337.761719 430.429688 C 328.015625 420.386719 318.554688 409.265625 310.542969 398.40625 C 297.136719 380.242188 293.964844 359.058594 301.613281 338.75 C 304.464844 331.179688 309.285156 325.007812 313.953125 319.035156 C 318.648438 313.011719 323.089844 307.332031 324.058594 301.707031 C 327.644531 280.976562 303.480469 255.046875 289.039062 239.546875 L 283.414062 233.4375 C 268.105469 216.699219 258.796875 208.46875 250.425781 208.46875 Z M 479.324219 591.90625 C 468.925781 591.90625 458.929688 590.640625 450.015625 588.554688 C 438.902344 585.960938 427.488281 582.121094 416.101562 577.175781 C 360.941406 553.203125 314.539062 511.230469 285.332031 480.238281 C 255.976562 449.449219 216.546875 400.867188 195.5625 344.496094 C 191.226562 332.863281 188.015625 321.265625 186.011719 310.023438 C 180.691406 280.226562 185.066406 238.976562 213.324219 212.582031 L 216.445312 209.613281 C 220.378906 205.882812 226.496094 200.070312 226.746094 199.855469 C 255.011719 175.039062 280.300781 202.691406 297.027344 220.996094 L 302.539062 226.976562 C 319.3125 244.972656 347.382812 275.101562 342.242188 304.847656 C 340.476562 315.027344 334.109375 323.191406 328.492188 330.390625 C 324.5 335.492188 320.730469 340.320312 318.875 345.253906 C 313.425781 359.710938 315.683594 374.308594 325.386719 387.453125 C 332.917969 397.648438 341.824219 408.121094 351.148438 417.734375 C 360.375 427.695312 370.363281 437.152344 380.15625 445.234375 C 392.769531 455.632812 407.21875 458.65625 421.953125 454.003906 C 426.972656 452.398438 431.988281 448.902344 437.296875 445.195312 C 444.792969 439.972656 453.273438 434.039062 463.542969 432.832031 C 493.613281 429.285156 522.113281 458.929688 539.183594 476.644531 L 544.863281 482.464844 C 562.242188 500.144531 588.507812 526.871094 562.242188 553.742188 C 561.832031 554.140625 555.664062 559.992188 551.773438 563.664062 L 548.773438 566.511719 C 529.34375 585.195312 503.300781 591.90625 479.324219 591.90625 " fill-opacity="1" fill-rule="nonzero"/></svg>