<svg xmlns="http://www.w3.org/2000/svg" xmlns:xlink="http://www.w3.org/1999/xlink" width="1024" zoomAndPan="magnify" viewBox="0 0 768 767.999994" height="1024" preserveAspectRatio="xMidYMid meet" version="1.0"><defs><clipPath id="14e0a60c8c"><path d="M 181.21875 178.636719 L 595.21875 178.636719 L 595.21875 592.636719 L 181.21875 592.636719 Z M 181.21875 178.636719 " clip-rule="nonzero"/></clipPath></defs><g clip-path="url(#14e0a60c8c)"><path fill="#000000" d="M 566.238281 211.757812 L 528.980469 211.757812 L 528.980469 186.917969 C 528.980469 182.347656 525.277344 178.636719 520.699219 178.636719 C 516.121094 178.636719 512.417969 182.347656 512.417969 186.917969 L 512.417969 211.757812 L 264.019531 211.757812 L 264.019531 186.917969 C 264.019531 182.347656 260.308594 178.636719 255.738281 178.636719 C 251.167969 178.636719 247.460938 182.347656 247.460938 186.917969 L 247.460938 211.757812 L 210.199219 211.757812 C 194.21875 211.757812 181.21875 224.757812 181.21875 240.738281 L 181.21875 563.65625 C 181.21875 579.636719 194.21875 592.636719 210.199219 592.636719 L 566.238281 592.636719 C 582.21875 592.636719 595.21875 579.636719 595.21875 563.65625 L 595.21875 240.738281 C 595.21875 224.757812 582.21875 211.757812 566.238281 211.757812 Z M 210.199219 228.316406 L 247.460938 228.316406 L 247.460938 253.15625 C 247.460938 257.726562 251.167969 261.4375 255.738281 261.4375 C 260.308594 261.4375 264.019531 257.726562 264.019531 253.15625 L 264.019531 228.316406 L 512.417969 228.316406 L 512.417969 253.15625 C 512.417969 257.726562 516.121094 261.4375 520.699219 261.4375 C 525.277344 261.4375 528.980469 257.726562 528.980469 253.15625 L 528.980469 228.316406 L 566.238281 228.316406 C 573.085938 228.316406 578.660156 233.890625 578.660156 240.738281 L 578.660156 294.558594 L 197.78125 294.558594 L 197.78125 240.738281 C 197.78125 233.890625 203.351562 228.316406 210.199219 228.316406 Z M 566.238281 576.078125 L 210.199219 576.078125 C 203.351562 576.078125 197.78125 570.503906 197.78125 563.65625 L 197.78125 311.117188 L 578.660156 311.117188 L 578.660156 563.65625 C 578.660156 570.503906 573.085938 576.078125 566.238281 576.078125 Z M 566.238281 576.078125 " fill-opacity="1" fill-rule="nonzero"/></g><path fill="#000000" d="M 333.6875 357.367188 C 340.15625 363.835938 340.15625 374.320312 333.6875 380.789062 C 327.222656 387.253906 316.738281 387.253906 310.269531 380.789062 C 303.800781 374.320312 303.800781 363.835938 310.269531 357.367188 C 316.738281 350.902344 327.222656 350.902344 333.6875 357.367188 " fill-opacity="1" fill-rule="nonzero"/><path fill="#000000" d="M 399.929688 357.367188 C 406.394531 363.835938 406.394531 374.320312 399.929688 380.789062 C 393.460938 387.253906 382.976562 387.253906 376.507812 380.789062 C 370.042969 374.320312 370.042969 363.835938 376.507812 357.367188 C 382.976562 350.902344 393.460938 350.902344 399.929688 357.367188 " fill-opacity="1" fill-rule="nonzero"/><path fill="#000000" d="M 466.167969 357.367188 C 472.636719 363.835938 472.636719 374.320312 466.167969 380.789062 C 459.703125 387.253906 449.214844 387.253906 442.75 380.789062 C 436.28125 374.320312 436.28125 363.835938 442.75 357.367188 C 449.214844 350.902344 459.703125 350.902344 466.167969 357.367188 " fill-opacity="1" fill-rule="nonzero"/><path fill="#000000" d="M 532.410156 357.367188 C 538.875 363.835938 538.875 374.320312 532.410156 380.789062 C 525.941406 387.253906 515.457031 387.253906 508.988281 380.789062 C 502.523438 374.320312 502.523438 363.835938 508.988281 357.367188 C 515.457031 350.902344 525.941406 350.902344 532.410156 357.367188 " fill-opacity="1" fill-rule="nonzero"/><path fill="#000000" d="M 267.449219 423.609375 C 273.917969 430.074219 273.917969 440.558594 267.449219 447.027344 C 260.980469 453.496094 250.496094 453.496094 244.03125 447.027344 C 237.5625 440.5625 237.5625 430.074219 244.03125 423.609375 C 250.496094 417.140625 260.980469 417.140625 267.449219 423.609375 " fill-opacity="1" fill-rule="nonzero"/><path fill="#000000" d="M 333.6875 423.609375 C 340.15625 430.074219 340.15625 440.558594 333.6875 447.027344 C 327.222656 453.496094 316.738281 453.496094 310.269531 447.027344 C 303.800781 440.5625 303.800781 430.074219 310.269531 423.609375 C 316.738281 417.140625 327.222656 417.140625 333.6875 423.609375 " fill-opacity="1" fill-rule="nonzero"/><path fill="#000000" d="M 399.929688 423.609375 C 406.394531 430.074219 406.394531 440.558594 399.929688 447.027344 C 393.460938 453.496094 382.976562 453.496094 376.507812 447.027344 C 370.042969 440.5625 370.042969 430.074219 376.507812 423.609375 C 382.976562 417.140625 393.460938 417.140625 399.929688 423.609375 " fill-opacity="1" fill-rule="nonzero"/><path fill="#000000" d="M 466.167969 423.609375 C 472.636719 430.074219 472.636719 440.558594 466.167969 447.027344 C 459.703125 453.496094 449.214844 453.496094 442.75 447.027344 C 436.28125 440.5625 436.28125 430.074219 442.75 423.609375 C 449.214844 417.140625 459.703125 417.140625 466.167969 423.609375 " fill-opacity="1" fill-rule="nonzero"/><path fill="#000000" d="M 532.410156 423.609375 C 538.875 430.074219 538.875 440.558594 532.410156 447.027344 C 525.941406 453.496094 515.457031 453.496094 508.988281 447.027344 C 502.523438 440.5625 502.523438 430.074219 508.988281 423.609375 C 515.457031 417.140625 525.941406 417.140625 532.410156 423.609375 " fill-opacity="1" fill-rule="nonzero"/><path fill="#000000" d="M 267.449219 489.847656 C 273.917969 496.316406 273.917969 506.800781 267.449219 513.269531 C 260.980469 519.734375 250.496094 519.734375 244.03125 513.269531 C 237.5625 506.800781 237.5625 496.316406 244.03125 489.847656 C 250.496094 483.382812 260.980469 483.382812 267.449219 489.847656 " fill-opacity="1" fill-rule="nonzero"/><path fill="#000000" d="M 333.6875 489.847656 C 340.15625 496.316406 340.15625 506.800781 333.6875 513.269531 C 327.222656 519.734375 316.738281 519.734375 310.269531 513.269531 C 303.800781 506.800781 303.800781 496.316406 310.269531 489.847656 C 316.738281 483.382812 327.222656 483.382812 333.6875 489.847656 " fill-opacity="1" fill-rule="nonzero"/><path fill="#000000" d="M 399.929688 489.847656 C 406.394531 496.316406 406.394531 506.800781 399.929688 513.269531 C 393.460938 519.734375 382.976562 519.734375 376.507812 513.269531 C 370.042969 506.800781 370.042969 496.316406 376.507812 489.847656 C 382.976562 483.382812 393.460938 483.382812 399.929688 489.847656 " fill-opacity="1" fill-rule="nonzero"/></svg>