<svg xmlns="http://www.w3.org/2000/svg" xmlns:xlink="http://www.w3.org/1999/xlink" width="1024" zoomAndPan="magnify" viewBox="0 0 768 767.999994" height="1024" preserveAspectRatio="xMidYMid meet" version="1.0"><defs><clipPath id="b9693c32a1"><path d="M 180.363281 157.285156 L 589 157.285156 L 589 566 L 180.363281 566 Z M 180.363281 157.285156 " clip-rule="nonzero"/></clipPath></defs><g clip-path="url(#b9693c32a1)"><path fill="#000000" d="M 557.960938 548.226562 L 211.222656 548.226562 C 203.714844 548.226562 197.878906 542.425781 197.878906 534.882812 L 197.878906 443.613281 L 263.292969 389.4375 L 321.640625 447.78125 C 323.308594 449.449219 325.808594 450.285156 327.914062 450.285156 C 329.980469 450.285156 332.480469 449.449219 334.148438 447.78125 L 472.960938 309.007812 L 571.304688 407.351562 L 571.304688 534.882812 C 571.304688 541.992188 565.066406 548.226562 557.960938 548.226562 Z M 211.222656 174.800781 L 557.960938 174.800781 C 565.464844 174.800781 571.304688 180.636719 571.304688 188.144531 L 571.304688 382.363281 L 479.199219 290.65625 C 475.863281 287.320312 470.023438 287.320312 466.6875 290.65625 L 327.914062 429.46875 L 269.964844 371.523438 C 269.566406 371.085938 269.132812 371.085938 268.734375 370.6875 C 268.296875 370.289062 267.898438 369.855469 267.464844 369.855469 C 267.066406 369.417969 266.230469 369.417969 265.796875 369.417969 C 265.398438 369.417969 264.5625 369.019531 264.128906 369.019531 C 263.730469 369.019531 262.894531 369.019531 262.460938 369.019531 C 262.0625 369.019531 261.226562 369.019531 260.792969 369.417969 C 260.394531 369.417969 259.957031 369.855469 259.125 370.289062 C 258.726562 370.6875 258.289062 370.6875 257.890625 371.085938 L 197.878906 421.09375 L 197.878906 188.144531 C 197.878906 181.039062 204.113281 174.800781 211.222656 174.800781 Z M 557.960938 157.285156 L 211.222656 157.285156 C 194.105469 157.285156 180.363281 171.027344 180.363281 188.144531 L 180.363281 534.882812 C 180.363281 552 194.105469 565.742188 211.222656 565.742188 L 557.960938 565.742188 C 575.074219 565.742188 588.820312 552 588.820312 534.882812 L 588.820312 188.144531 C 588.820312 171.027344 575.074219 157.285156 557.960938 157.285156 " fill-opacity="1" fill-rule="nonzero"/></g><path fill="#000000" d="M 285.414062 232.3125 C 300.390625 232.3125 312.464844 244.386719 312.464844 259.398438 C 312.464844 274.414062 300.390625 286.488281 285.414062 286.488281 C 270.402344 286.488281 258.289062 274.414062 258.289062 259.398438 C 258.289062 244.386719 270.402344 232.3125 285.414062 232.3125 Z M 285.414062 304.003906 C 310 304.003906 329.980469 283.984375 329.980469 259.398438 C 329.980469 234.8125 310 214.796875 285.414062 214.796875 C 260.792969 214.796875 240.8125 234.8125 240.8125 259.398438 C 240.8125 283.984375 260.792969 304.003906 285.414062 304.003906 " fill-opacity="1" fill-rule="nonzero"/></svg>