<svg xmlns="http://www.w3.org/2000/svg" xmlns:xlink="http://www.w3.org/1999/xlink" width="1024" zoomAndPan="magnify" viewBox="0 0 768 767.999994" height="1024" preserveAspectRatio="xMidYMid meet" version="1.0"><defs><clipPath id="8d8228592c"><path d="M 467 285 L 480 285 L 480 556.257812 L 467 556.257812 Z M 467 285 " clip-rule="nonzero"/></clipPath><clipPath id="b5a9fb37bb"><path d="M 432 216.507812 L 513.664062 216.507812 L 513.664062 298 L 432 298 Z M 432 216.507812 " clip-rule="nonzero"/></clipPath><clipPath id="9c0ef8d415"><path d="M 377 216.507812 L 391 216.507812 L 391 488 L 377 488 Z M 377 216.507812 " clip-rule="nonzero"/></clipPath><clipPath id="90168b9fab"><path d="M 343 475 L 425 475 L 425 556.257812 L 343 556.257812 Z M 343 475 " clip-rule="nonzero"/></clipPath><clipPath id="c9d9fbcf6f"><path d="M 288 285 L 301 285 L 301 556.257812 L 288 556.257812 Z M 288 285 " clip-rule="nonzero"/></clipPath><clipPath id="e644a013a8"><path d="M 254 216.507812 L 335 216.507812 L 335 298 L 254 298 Z M 254 216.507812 " clip-rule="nonzero"/></clipPath></defs><g clip-path="url(#8d8228592c)"><path fill="#000000" d="M 473.355469 556.082031 C 470.007812 556.082031 467.296875 553.367188 467.296875 550.054688 L 467.296875 291.089844 C 467.296875 287.746094 470.007812 285.03125 473.355469 285.0625 C 476.671875 285.0625 479.386719 287.746094 479.386719 291.089844 L 479.386719 550.054688 C 479.386719 553.367188 476.671875 556.050781 473.355469 556.082031 " fill-opacity="1" fill-rule="nonzero"/></g><g clip-path="url(#b5a9fb37bb)"><path fill="#000000" d="M 473.296875 228.597656 C 457.710938 228.597656 445.078125 241.230469 445.078125 256.816406 C 445.078125 272.402344 457.710938 285.03125 473.296875 285.03125 C 488.882812 285.03125 501.511719 272.402344 501.511719 256.816406 C 501.511719 241.257812 488.882812 228.628906 473.296875 228.597656 Z M 473.296875 297.152344 C 451.046875 297.152344 432.988281 279.09375 432.988281 256.816406 C 432.988281 234.566406 451.046875 216.507812 473.296875 216.507812 C 495.574219 216.507812 513.632812 234.566406 513.632812 256.816406 C 513.632812 279.09375 495.574219 297.152344 473.296875 297.152344 " fill-opacity="1" fill-rule="nonzero"/></g><g clip-path="url(#9c0ef8d415)"><path fill="#000000" d="M 383.96875 487.558594 C 380.65625 487.527344 377.941406 484.84375 377.941406 481.5 L 377.941406 222.566406 C 377.941406 219.222656 380.65625 216.507812 383.96875 216.507812 C 387.316406 216.507812 390.03125 219.222656 390.03125 222.566406 L 390.03125 481.5 C 390.03125 484.84375 387.316406 487.558594 383.96875 487.558594 " fill-opacity="1" fill-rule="nonzero"/></g><g clip-path="url(#90168b9fab)"><path fill="#000000" d="M 383.96875 487.558594 C 368.382812 487.558594 355.753906 500.191406 355.753906 515.777344 C 355.753906 531.363281 368.382812 543.992188 383.96875 543.992188 C 399.554688 543.992188 412.1875 531.363281 412.1875 515.777344 C 412.1875 500.191406 399.554688 487.558594 383.96875 487.558594 Z M 383.96875 556.082031 C 361.722656 556.082031 343.664062 538.023438 343.664062 515.777344 C 343.664062 493.496094 361.722656 475.441406 383.96875 475.441406 C 406.25 475.441406 424.308594 493.496094 424.308594 515.777344 C 424.308594 538.023438 406.25 556.082031 383.96875 556.082031 " fill-opacity="1" fill-rule="nonzero"/></g><g clip-path="url(#c9d9fbcf6f)"><path fill="#000000" d="M 294.675781 556.082031 C 291.359375 556.082031 288.644531 553.367188 288.644531 550.054688 L 288.644531 291.089844 C 288.644531 287.746094 291.328125 285.03125 294.675781 285.03125 C 298.023438 285.03125 300.734375 287.746094 300.734375 291.0625 C 300.734375 291.089844 300.734375 291.089844 300.734375 291.089844 L 300.734375 550.054688 C 300.703125 553.367188 298.023438 556.050781 294.675781 556.082031 " fill-opacity="1" fill-rule="nonzero"/></g><g clip-path="url(#e644a013a8)"><path fill="#000000" d="M 294.644531 228.597656 C 279.058594 228.597656 266.429688 241.230469 266.429688 256.816406 C 266.429688 272.402344 279.058594 285.03125 294.644531 285.03125 C 310.230469 285.03125 322.863281 272.402344 322.863281 256.816406 C 322.863281 241.257812 310.230469 228.628906 294.644531 228.597656 Z M 294.644531 297.152344 C 272.398438 297.152344 254.339844 279.09375 254.339844 256.816406 C 254.339844 234.566406 272.398438 216.507812 294.644531 216.507812 C 316.925781 216.507812 334.980469 234.566406 334.980469 256.816406 C 334.980469 279.09375 316.925781 297.152344 294.644531 297.152344 " fill-opacity="1" fill-rule="nonzero"/></g></svg>