<svg xmlns="http://www.w3.org/2000/svg" xmlns:xlink="http://www.w3.org/1999/xlink" width="1024" zoomAndPan="magnify" viewBox="0 0 768 767.999994" height="1024" preserveAspectRatio="xMidYMid meet" version="1.0"><defs><clipPath id="704dd9763f"><path d="M 219.808594 156.925781 L 554.898438 156.925781 L 554.898438 566.261719 L 219.808594 566.261719 Z M 219.808594 156.925781 " clip-rule="nonzero"/></clipPath></defs><path fill="#000000" d="M 272.535156 294.835938 L 486.433594 294.835938 C 493.8125 294.835938 499.808594 288.804688 499.808594 281.460938 C 499.808594 274.085938 493.8125 268.050781 486.433594 268.050781 L 272.535156 268.050781 C 265.160156 268.050781 259.164062 274.085938 259.164062 281.460938 C 259.164062 288.804688 265.160156 294.835938 272.535156 294.835938 " fill-opacity="1" fill-rule="nonzero"/><path fill="#000000" d="M 503.152344 321.65625 L 272.535156 321.65625 C 265.160156 321.65625 259.164062 327.6875 259.164062 335.0625 C 259.164062 342.40625 265.160156 348.472656 272.535156 348.472656 L 503.152344 348.472656 C 510.492188 348.472656 516.523438 342.40625 516.523438 335.0625 C 516.523438 327.6875 510.492188 321.65625 503.152344 321.65625 " fill-opacity="1" fill-rule="nonzero"/><path fill="#000000" d="M 490.070312 375.257812 L 272.535156 375.257812 C 265.160156 375.257812 259.164062 381.289062 259.164062 388.664062 C 259.164062 396.042969 265.160156 402.074219 272.535156 402.074219 L 490.070312 402.074219 C 497.410156 402.074219 503.441406 396.042969 503.441406 388.664062 C 503.441406 381.289062 497.410156 375.257812 490.070312 375.257812 " fill-opacity="1" fill-rule="nonzero"/><path fill="#000000" d="M 361.242188 428.859375 L 272.609375 428.859375 C 265.269531 428.859375 259.234375 434.925781 259.234375 442.269531 C 259.234375 449.644531 265.269531 455.675781 272.609375 455.675781 L 361.242188 455.675781 C 368.582031 455.675781 374.617188 449.644531 374.617188 442.269531 C 374.617188 434.925781 368.582031 428.859375 361.242188 428.859375 " fill-opacity="1" fill-rule="nonzero"/><g clip-path="url(#704dd9763f)"><path fill="#000000" d="M 541.453125 516.546875 C 541.453125 535.042969 526.917969 552.851562 508.457031 552.851562 L 267.195312 552.851562 C 248.734375 552.851562 233.214844 535.042969 233.214844 516.546875 L 233.214844 221.71875 C 233.214844 204.203125 247.570312 191.300781 264.832031 189.992188 C 262.652344 199.953125 263.5625 208.453125 268.140625 210.199219 C 273.988281 212.378906 282.964844 204.382812 289.179688 190.976562 L 307.894531 190.976562 C 305.679688 201.042969 306.839844 209 311.457031 210.746094 C 317.269531 212.925781 326.5 204.382812 332.714844 190.976562 L 351.46875 190.976562 C 349.25 201.042969 350.414062 209 354.992188 210.746094 C 360.84375 212.925781 370.074219 204.382812 376.289062 190.976562 L 395.039062 190.976562 C 392.785156 201.042969 393.984375 209 398.5625 210.746094 C 404.378906 212.925781 413.609375 204.382812 419.859375 190.976562 L 438.574219 190.976562 C 436.359375 201.042969 437.519531 209 442.136719 210.746094 C 447.949219 212.925781 457.179688 204.382812 463.394531 190.976562 L 482.148438 190.976562 C 479.929688 201.042969 481.09375 209 485.671875 210.746094 C 491.523438 212.925781 500.753906 204.382812 506.96875 190.976562 L 508.457031 190.976562 C 526.917969 190.976562 541.453125 203.222656 541.453125 221.71875 Z M 512.089844 176.621094 C 514.378906 166.519531 512.964844 158.996094 508.347656 157.25 C 502.496094 155.035156 493.011719 164.15625 486.796875 177.566406 L 468.046875 177.566406 C 470.261719 167.535156 469.101562 159.539062 464.523438 157.796875 C 458.707031 155.617188 449.441406 164.15625 443.226562 177.566406 L 424.511719 177.566406 C 426.726562 167.535156 425.566406 159.539062 420.949219 157.796875 C 415.136719 155.617188 405.90625 164.15625 399.691406 177.566406 L 380.9375 177.566406 C 383.15625 167.535156 381.992188 159.539062 377.414062 157.796875 C 371.5625 155.617188 362.332031 164.15625 356.117188 177.566406 L 337.367188 177.566406 C 339.621094 167.535156 338.457031 159.539062 333.84375 157.796875 C 328.027344 155.617188 318.796875 164.15625 312.546875 177.566406 L 293.832031 177.566406 C 296.046875 167.535156 294.886719 159.539062 290.269531 157.796875 C 284.457031 155.617188 275.226562 164.15625 269.011719 177.566406 L 267.195312 177.566406 C 241.429688 177.566406 219.808594 195.917969 219.808594 221.71875 L 219.808594 516.546875 C 219.808594 542.347656 241.429688 566.261719 267.195312 566.261719 L 508.457031 566.261719 C 534.257812 566.261719 554.898438 542.347656 554.898438 516.546875 L 554.898438 221.71875 C 554.863281 196.972656 536.328125 178.109375 512.089844 176.621094 " fill-opacity="1" fill-rule="nonzero"/></g></svg>