<svg xmlns="http://www.w3.org/2000/svg" xmlns:xlink="http://www.w3.org/1999/xlink" width="500" zoomAndPan="magnify" viewBox="0 0 375 374.999991" height="500" preserveAspectRatio="xMidYMid meet" version="1.0"><defs><g/></defs><g fill="#404040" fill-opacity="1"><g transform="translate(122.877815, 208.177326)"><g><path d="M 32.03125 -34.289062 L 32.03125 -41.535156 C 32.03125 -41.742188 31.820312 -42.007812 31.453125 -42.007812 L 24.625 -42.007812 C 14.175781 -42.007812 0 -38.960938 0 -21.003906 C 0 -2.363281 14.335938 0 24.625 0 L 31.453125 0 C 31.820312 0 32.03125 -0.261719 32.03125 -0.472656 L 32.03125 -26.203125 L 15.910156 -26.203125 L 15.910156 -18.167969 L 23.996094 -18.167969 L 23.996094 -7.667969 C 14.859375 -7.195312 8.085938 -11.027344 8.085938 -21.003906 C 8.085938 -33.972656 18.902344 -34.496094 23.996094 -34.289062 Z M 32.03125 -34.289062 "/></g></g></g><g fill="#404040" fill-opacity="1"><g transform="translate(162.306285, 208.177326)"><g><path d="M 17.117188 -7.195312 L 12.917969 -7.195312 L 12.917969 -42.007812 L 4.882812 -42.007812 L 4.882812 -7.195312 L 0.578125 -7.195312 C 0.261719 -7.195312 0 -6.984375 0 -6.722656 L 0 -0.472656 C 0 -0.261719 0.261719 0 0.578125 0 L 17.117188 0 C 17.484375 0 17.695312 -0.261719 17.695312 -0.472656 L 17.695312 -6.722656 C 17.695312 -6.984375 17.484375 -7.195312 17.117188 -7.195312 Z M 17.117188 -7.195312 "/></g></g></g><g fill="#404040" fill-opacity="1"><g transform="translate(186.667271, 208.177326)"><g><path d="M 28.667969 -0.683594 C 26.042969 -6.511719 23.207031 -12.285156 20.582031 -18.21875 C 24.785156 -19.742188 28.300781 -23.101562 28.300781 -29.507812 C 28.300781 -41.902344 16.488281 -42.007812 14.125 -42.007812 L 0.523438 -42.007812 C 0.261719 -42.007812 0 -41.742188 0 -41.535156 L 0 -34.390625 L 14.125 -34.390625 C 15.382812 -34.390625 20.320312 -34.128906 20.320312 -29.507812 C 20.320312 -24.886719 15.855469 -24.679688 14.125 -24.679688 L 0 -24.679688 L 0 -0.472656 C 0 -0.261719 0.261719 0 0.523438 0 L 7.402344 0 C 7.71875 0 7.980469 -0.261719 7.980469 -0.472656 L 7.980469 -16.960938 L 12.496094 -16.960938 L 20.164062 -0.316406 C 20.214844 -0.15625 20.53125 0 20.6875 0 L 28.195312 0 C 28.617188 0 28.828125 -0.316406 28.667969 -0.683594 Z M 28.667969 -0.683594 "/></g></g></g><g fill="#404040" fill-opacity="1"><g transform="translate(222.630739, 208.177326)"><g><path d="M 32.976562 -0.628906 L 17.011719 -41.691406 C 16.855469 -42.109375 16.121094 -42.109375 15.960938 -41.691406 L 0.0507812 -0.628906 C -0.105469 -0.316406 0.105469 0 0.578125 0 L 7.769531 0 C 7.980469 0 8.242188 -0.105469 8.296875 -0.316406 L 16.488281 -23.734375 L 24.785156 -0.316406 C 24.835938 -0.105469 25.097656 0 25.257812 0 L 32.503906 0 C 32.871094 0 33.132812 -0.316406 32.976562 -0.628906 Z M 32.976562 -0.628906 "/></g></g></g><path stroke-linecap="butt" transform="matrix(-0.75, 0, 0, -0.75, 294.364233, 142.033995)" fill="none" stroke-linejoin="miter" d="M 0.00126923 4.998452 L 84.433566 4.998452 " stroke="#404040" stroke-width="10" stroke-opacity="1" stroke-miterlimit="4"/><path stroke-linecap="butt" transform="matrix(0, -0.75, 0.75, 0, 286.868071, 198.627673)" fill="none" stroke-linejoin="miter" d="M -0.00164386 4.998822 L 82.461903 4.998822 " stroke="#404040" stroke-width="10" stroke-opacity="1" stroke-miterlimit="4"/><path stroke-linecap="butt" transform="matrix(0.75, 0, 0, 0.75, 81.306225, 232.958306)" fill="none" stroke-linejoin="miter" d="M -0.00204968 4.998301 L 84.435456 4.998301 " stroke="#404040" stroke-width="10" stroke-opacity="1" stroke-miterlimit="4"/><path stroke-linecap="butt" transform="matrix(0, 0.75, -0.75, 0, 88.802379, 176.364612)" fill="none" stroke-linejoin="miter" d="M -0.00177489 5.002131 L 82.461772 5.002131 " stroke="#404040" stroke-width="10" stroke-opacity="1" stroke-miterlimit="4"/></svg>